<?xml version="1.0" encoding="UTF-8"?>
<svg width="87px" height="87px" viewBox="0 0 87 87" version="1.1" xmlns="http://www.w3.org/2000/svg" xmlns:xlink="http://www.w3.org/1999/xlink">
    <title>Artboard</title>
    <g id="Artboard" stroke="none" stroke-width="1" fill="none" fill-rule="evenodd">
        <rect id="Rectangle" fill="#25403C" x="0" y="0" width="87" height="87"></rect>
        <g id="Group-5" transform="translate(43.000000, 12.000000)" fill="#53A497" fill-rule="nonzero">
            <g id="chat-(2)-copy-2">
                <path d="M26.8853601,10.8025568 L26.8853601,2.7006392 C26.8853601,1.21150675 25.681957,0 24.2027853,0 L2.68257473,0 C1.20340302,0 0,1.21150675 0,2.7006392 L0,17.1040483 C0,18.5931808 1.20340302,19.8046875 2.68257473,19.8046875 L3.5767663,19.8046875 L3.5767663,24.3057528 C3.5767663,24.669859 3.79465099,24.9981367 4.12878057,25.1374297 C4.46296977,25.2767227 4.84753176,25.1997244 5.10327055,24.9422635 L10.2064815,19.8046875 L14.366678,19.8046875 L26.8853601,10.8025568 Z M9.83610734,18.0042614 C9.59890812,18.0042614 9.37154501,18.0990838 9.20385428,18.2679038 L5.36514946,22.1323984 L5.36514946,18.9044744 C5.36514946,18.4073168 4.96479008,18.0042614 4.47095788,18.0042614 L2.68257473,18.0042614 C2.18951749,18.0042614 1.78838315,17.6004258 1.78838315,17.1040483 L1.78838315,2.7006392 C1.78838315,2.20426172 2.18951749,1.80042614 2.68257473,1.80042614 L24.2027853,1.80042614 C24.6958426,1.80042614 25.0969769,2.20426172 25.0969769,2.7006392 L25.0969769,10.8025568 L17.0492527,10.8025568 C15.570081,10.8025568 14.366678,12.0140636 14.366678,13.503196 L14.366678,18.0042614 L9.83610734,18.0042614 Z" id="Shape"></path>
                <path d="M11.6841033,12.602983 L6.25934103,12.602983 C5.76550883,12.602983 5.36514946,13.0060384 5.36514946,13.503196 C5.36514946,14.0003537 5.76550883,14.4034091 6.25934103,14.4034091 L11.6841033,14.4034091 C12.1779355,14.4034091 12.5782948,14.0003537 12.5782948,13.503196 C12.5782948,13.0060384 12.1779355,12.602983 11.6841033,12.602983 Z" id="Path"></path>
                <path d="M13.4724864,9.00213068 L6.25934103,9.00213068 C5.76550883,9.00213068 5.36514946,9.40518608 5.36514946,9.90234375 C5.36514946,10.3995014 5.76550883,10.8025568 6.25934103,10.8025568 L13.4724864,10.8025568 C13.9663186,10.8025568 14.366678,10.3995014 14.366678,9.90234375 C14.366678,9.40518608 13.9663186,9.00213068 13.4724864,9.00213068 Z" id="Path"></path>
                <path d="M6.25934103,7.20170455 L20.626019,7.20170455 C21.1198512,7.20170455 21.5202106,6.79864915 21.5202106,6.30149148 C21.5202106,5.80433381 21.1198512,5.40127841 20.626019,5.40127841 L6.25934103,5.40127841 C5.76550883,5.40127841 5.36514946,5.80433381 5.36514946,6.30149148 C5.36514946,6.79864915 5.76550883,7.20170455 6.25934103,7.20170455 Z" id="Path"></path>
            </g>
            <g id="chat-(3)" transform="translate(14.000000, 11.000000)">
                <path d="M13.9358259,-9.89684525e-15 L2.77483259,-9.89684525e-15 C1.24472824,-9.89684525e-15 0,1.17150893 0,2.61160714 L0,9.57589286 C0,11.0159911 1.24472824,12.1875 2.77483259,12.1875 L7.94150921,12.1875 L11.3702773,15.4145759 C11.6372779,15.6658705 12.0374704,15.7371964 12.3783432,15.603308 C12.7242723,15.4690134 12.9492187,15.1510357 12.9492187,14.7991071 L12.9492187,12.1875 L13.9358259,12.1875 C15.4659302,12.1875 16.7106585,11.0159911 16.7106585,9.57589286 L16.7106585,2.61160714 C16.7106585,1.17150893 15.4659302,-9.89684525e-15 13.9358259,-9.89684525e-15 Z M10.8283217,5.83868304 L8.05348912,8.45029018 C7.69220592,8.79032143 7.10683956,8.79032143 6.74555636,8.45029018 L5.35814007,7.14448661 C4.99685686,6.80445536 4.99685686,6.25352232 5.35814007,5.91349107 C5.71942327,5.57345982 6.30478962,5.57345982 6.66607282,5.91349107 L7.39955357,6.60382589 L9.52045061,4.6076875 C9.88173382,4.26765625 10.4671002,4.26765625 10.8283834,4.6076875 C11.1896666,4.94771875 11.1896666,5.49865179 10.8283217,5.83868304 Z" id="Shape"></path>
            </g>
        </g>
        <g id="Group-3" transform="translate(9.000000, 33.000000)" fill="#D4E9E5" fill-rule="nonzero">
            <path d="M4.41899565,34 C6.04895307,34 7.31669772,33.4103984 8.22222962,32.2311951 L8.22222962,32.2311951 L6.99070624,31.2829697 C6.67678851,31.6719852 6.33268639,31.9850212 5.95839988,32.2220775 C5.58411336,32.4591338 5.14342117,32.577662 4.63632331,32.577662 C4.26203679,32.577662 3.89982403,32.5168783 3.54968503,32.395311 C3.19954603,32.2737436 2.89166519,32.1035493 2.6260425,31.8847281 C2.36041981,31.6659069 2.14611059,31.4014979 1.98311485,31.0915011 C1.82011911,30.7815044 1.73862124,30.4380766 1.73862124,30.0612178 L1.73862124,30.0612178 L8.62066365,30.0612178 L8.62066365,29.4776946 C8.62066365,28.9184847 8.54520266,28.3683925 8.39428068,27.8274178 C8.24335869,27.2864431 7.99886508,26.8001737 7.66079984,26.3686096 C7.3227346,25.9370455 6.89109773,25.5875393 6.36588923,25.3200912 C5.84068073,25.052643 5.19775308,24.9189189 4.43710629,24.9189189 C3.79719708,24.9189189 3.20558291,25.0344079 2.66226377,25.2653859 C2.11894464,25.4963638 1.65108649,25.8154781 1.25868934,26.2227288 C0.866292181,26.6299794 0.558411336,27.1101704 0.335046802,27.6633019 C0.111682267,28.2164333 0,28.8151525 0,29.4594595 C0,30.1037664 0.102626948,30.7024856 0.307880845,31.2556171 C0.513134741,31.8087485 0.805923387,32.2889395 1.18624678,32.6961902 C1.56657018,33.1034408 2.03140989,33.4225551 2.5807659,33.6535331 C3.13012192,33.884511 3.74286517,34 4.41899565,34 Z M6.85369532,28.7567568 L1.74019608,28.7567568 C1.74019608,28.4653349 1.80321456,28.1708774 1.92925151,27.8733843 C2.05528846,27.5758911 2.23234037,27.3057188 2.46040724,27.0628672 C2.68847411,26.8200157 2.96755593,26.6226988 3.29765271,26.4709166 C3.6277495,26.3191344 3.99085596,26.2432432 4.3869721,26.2432432 C4.79509175,26.2432432 5.15219646,26.3069918 5.4582862,26.4344888 C5.76437594,26.5619859 6.01945073,26.7380533 6.22351056,26.962691 C6.42757039,27.1873286 6.58061526,27.4514297 6.68264517,27.7549941 C6.78467509,28.0585586 6.8416918,28.3924794 6.85369532,28.7567568 L6.85369532,28.7567568 Z M13.398546,34 C13.8200007,34 14.2384449,33.9513731 14.6538788,33.8541192 C15.0693127,33.7568653 15.4395907,33.5988277 15.7647129,33.3800065 C16.0898351,33.1611853 16.3547495,32.8785412 16.559456,32.5320742 C16.7641626,32.1856073 16.8665158,31.7692391 16.8665158,31.2829697 C16.8665158,30.8817975 16.8032976,30.5414089 16.6768612,30.261804 C16.5504248,29.9821991 16.3758222,29.7451427 16.1530533,29.550635 C15.9302844,29.3561272 15.66537,29.1980897 15.3583102,29.0765223 C15.0512504,28.954955 14.7231178,28.8516227 14.3739125,28.7665256 C14.1932891,28.7300554 13.976541,28.6875068 13.7236682,28.6388798 C13.4707954,28.5902529 13.2329745,28.5173125 13.0102056,28.4200586 C12.7874367,28.3228047 12.5947717,28.195159 12.4322107,28.0371215 C12.2696496,27.8790839 12.188369,27.6724194 12.188369,27.417128 C12.188369,27.1010529 12.3298574,26.8609573 12.6128341,26.6968414 C12.8958108,26.5327255 13.2299641,26.4506675 13.6152941,26.4506675 C14.0247072,26.4506675 14.3709021,26.5327255 14.6538788,26.6968414 C14.9368555,26.8609573 15.1746764,27.0645827 15.3673414,27.3077174 L15.3673414,27.3077174 L16.6317054,26.3412569 C16.3186248,25.830674 15.8971701,25.465972 15.3673414,25.2471508 C14.8375127,25.0283295 14.2836008,24.9189189 13.7056058,24.9189189 C13.3082343,24.9189189 12.9138731,24.9736242 12.5225224,25.0830348 C12.1311716,25.1924455 11.7819663,25.3565614 11.4749065,25.5753826 C11.1678467,25.7942038 10.9209946,26.0707696 10.7343504,26.4050798 C10.5477062,26.73939 10.4543841,27.1314447 10.4543841,27.5812439 C10.4543841,27.9945729 10.5266335,28.3410398 10.6711322,28.6206447 C10.815631,28.9002496 11.008296,29.1312276 11.2491272,29.3135786 C11.4899584,29.4959297 11.7669144,29.6418105 12.079995,29.7512211 C12.3930756,29.8606317 12.7242185,29.9578856 13.0734238,30.0429827 C13.2540473,30.0794529 13.4617642,30.1250407 13.6965747,30.179746 C13.9313851,30.2344513 14.154154,30.3073917 14.3648813,30.3985672 C14.5756087,30.4897428 14.7562321,30.6143493 14.9067516,30.7723868 C15.0572712,30.9304244 15.1325309,31.1310105 15.1325309,31.3741452 C15.1325309,31.5564963 15.0813543,31.717573 14.979001,31.8573754 C14.8766477,31.9971779 14.7441905,32.1126669 14.5816295,32.2038424 C14.4190684,32.2950179 14.2324242,32.36188 14.0216968,32.4044285 C13.8109695,32.4469771 13.6032526,32.4682514 13.398546,32.4682514 C12.9289251,32.4682514 12.5315535,32.3649191 12.2064314,32.1582546 C11.8813092,31.9515901 11.5862909,31.7145338 11.3213766,31.4470856 L11.3213766,31.4470856 L10.0931373,32.4682514 C10.5145919,33.0517747 10.993244,33.4529469 11.5290935,33.6717682 C12.064943,33.8905894 12.6880938,34 13.398546,34 Z M21.6979427,34 C22.1193974,34 22.5378416,33.9513731 22.9532755,33.8541192 C23.3687094,33.7568653 23.7389874,33.5988277 24.0641096,33.3800065 C24.3892318,33.1611853 24.6541461,32.8785412 24.8588527,32.5320742 C25.0635592,32.1856073 25.1659125,31.7692391 25.1659125,31.2829697 C25.1659125,30.8817975 25.1026943,30.5414089 24.9762579,30.261804 C24.8498215,29.9821991 24.6752189,29.7451427 24.45245,29.550635 C24.2296811,29.3561272 23.9647667,29.1980897 23.6577069,29.0765223 C23.3506471,28.954955 23.0225145,28.8516227 22.6733092,28.7665256 C22.4926858,28.7300554 22.2759377,28.6875068 22.0230649,28.6388798 C21.7701921,28.5902529 21.5323712,28.5173125 21.3096023,28.4200586 C21.0868334,28.3228047 20.8941684,28.195159 20.7316073,28.0371215 C20.5690463,27.8790839 20.4877657,27.6724194 20.4877657,27.417128 C20.4877657,27.1010529 20.6292541,26.8609573 20.9122308,26.6968414 C21.1952075,26.5327255 21.5293608,26.4506675 21.9146908,26.4506675 C22.3241039,26.4506675 22.6702988,26.5327255 22.9532755,26.6968414 C23.2362522,26.8609573 23.4740731,27.0645827 23.6667381,27.3077174 L23.6667381,27.3077174 L24.9311021,26.3412569 C24.6180215,25.830674 24.1965668,25.465972 23.6667381,25.2471508 C23.1369093,25.0283295 22.5829975,24.9189189 22.0050025,24.9189189 C21.607631,24.9189189 21.2132698,24.9736242 20.8219191,25.0830348 C20.4305683,25.1924455 20.081363,25.3565614 19.7743032,25.5753826 C19.4672433,25.7942038 19.2203913,26.0707696 19.0337471,26.4050798 C18.8471029,26.73939 18.7537808,27.1314447 18.7537808,27.5812439 C18.7537808,27.9945729 18.8260302,28.3410398 18.9705289,28.6206447 C19.1150277,28.9002496 19.3076926,29.1312276 19.5485239,29.3135786 C19.7893551,29.4959297 20.066311,29.6418105 20.3793917,29.7512211 C20.6924723,29.8606317 21.0236152,29.9578856 21.3728205,30.0429827 C21.5534439,30.0794529 21.7611609,30.1250407 21.9959713,30.179746 C22.2307818,30.2344513 22.4535507,30.3073917 22.664278,30.3985672 C22.8750054,30.4897428 23.0556288,30.6143493 23.2061483,30.7723868 C23.3566678,30.9304244 23.4319276,31.1310105 23.4319276,31.3741452 C23.4319276,31.5564963 23.380751,31.717573 23.2783977,31.8573754 C23.1760444,31.9971779 23.0435872,32.1126669 22.8810261,32.2038424 C22.7184651,32.2950179 22.5318208,32.36188 22.3210935,32.4044285 C22.1103662,32.4469771 21.9026492,32.4682514 21.6979427,32.4682514 C21.2283218,32.4682514 20.8309502,32.3649191 20.5058281,32.1582546 C20.1807059,31.9515901 19.8856876,31.7145338 19.6207733,31.4470856 L19.6207733,31.4470856 L18.3925339,32.4682514 C18.8139886,33.0517747 19.2926407,33.4529469 19.8284902,33.6717682 C20.3643397,33.8905894 20.9874905,34 21.6979427,34 Z M31.298332,34 C32.9282894,34 34.1960341,33.4103984 35.101566,32.2311951 L35.101566,32.2311951 L33.8700426,31.2829697 C33.5561249,31.6719852 33.2120227,31.9850212 32.8377362,32.2220775 C32.4634497,32.4591338 32.0227575,32.577662 31.5156597,32.577662 C31.1413731,32.577662 30.7791604,32.5168783 30.4290214,32.395311 C30.0788824,32.2737436 29.7710015,32.1035493 29.5053788,31.8847281 C29.2397562,31.6659069 29.0254469,31.4014979 28.8624512,31.0915011 C28.6994555,30.7815044 28.6179576,30.4380766 28.6179576,30.0612178 L28.6179576,30.0612178 L35.5,30.0612178 L35.5,29.4776946 C35.5,28.9184847 35.424539,28.3683925 35.273617,27.8274178 C35.122695,27.2864431 34.8782014,26.8001737 34.5401362,26.3686096 C34.2020709,25.9370455 33.7704341,25.5875393 33.2452256,25.3200912 C32.7200171,25.052643 32.0770894,24.9189189 31.3164426,24.9189189 C30.6765334,24.9189189 30.0849193,25.0344079 29.5416001,25.2653859 C28.998281,25.4963638 28.5304228,25.8154781 28.1380257,26.2227288 C27.7456285,26.6299794 27.4377477,27.1101704 27.2143832,27.6633019 C26.9910186,28.2164333 26.8793363,28.8151525 26.8793363,29.4594595 C26.8793363,30.1037664 26.9819633,30.7024856 27.1872172,31.2556171 C27.3924711,31.8087485 27.6852597,32.2889395 28.0655831,32.6961902 C28.4459065,33.1034408 28.9107462,33.4225551 29.4601023,33.6535331 C30.0094583,33.884511 30.6222015,34 31.298332,34 Z M33.7598039,28.7567568 L28.6463047,28.7567568 C28.6463047,28.4653349 28.7093232,28.1708774 28.8353601,27.8733843 C28.9613971,27.5758911 29.138449,27.3057188 29.3665158,27.0628672 C29.5945827,26.8200157 29.8736645,26.6226988 30.2037613,26.4709166 C30.5338581,26.3191344 30.8969646,26.2432432 31.2930807,26.2432432 C31.7012004,26.2432432 32.0583051,26.3069918 32.3643948,26.4344888 C32.6704845,26.5619859 32.9255593,26.7380533 33.1296192,26.962691 C33.333679,27.1873286 33.4867239,27.4514297 33.5887538,27.7549941 C33.6907837,28.0585586 33.7478004,28.3924794 33.7598039,28.7567568 L33.7598039,28.7567568 Z M39.3456421,33.7567568 L39.3456421,29.319653 C39.3456421,28.8226004 39.4057734,28.3922256 39.5260361,28.0285285 C39.6462987,27.6648315 39.8146664,27.3647814 40.0311391,27.1283784 C40.2476119,26.8919753 40.5001634,26.7192192 40.7887937,26.6101101 C41.077424,26.501001 41.3901069,26.4464464 41.7268423,26.4464464 C41.9793938,26.4464464 42.2229256,26.485847 42.4574378,26.564648 C42.6919499,26.643449 42.899403,26.770743 43.0797969,26.9465299 C43.2601909,27.1223168 43.404506,27.3526582 43.5127424,27.6375542 C43.6209788,27.9224502 43.675097,28.2649316 43.675097,28.6649983 L43.675097,28.6649983 L43.675097,33.7567568 L45.2986425,33.7567568 L45.2986425,28.210377 C45.2986425,27.640585 45.2144587,27.1465632 45.046091,26.7283116 C44.8777233,26.3100601 44.6522309,25.9675787 44.3696137,25.7008675 C44.0869965,25.4341564 43.7562742,25.2371538 43.3774469,25.1098599 C42.9986196,24.9825659 42.6047595,24.9189189 42.1958666,24.9189189 C41.5344221,24.9189189 40.9511483,25.0613669 40.4460452,25.3462629 C39.9409421,25.6311589 39.5861674,26.0039484 39.3817209,26.4646313 L39.3817209,26.4646313 L39.3456421,26.4646313 L39.3456421,25.1371371 L37.7220965,25.1371371 L37.7220965,33.7567568 L39.3456421,33.7567568 Z M51.1975705,34 C51.3661974,34 51.6040817,33.9787582 51.9112234,33.9362747 C52.2183651,33.8937912 52.4682942,33.8179278 52.6610106,33.7086845 L52.6610106,33.7086845 L52.6610106,32.2156923 C52.4923837,32.3127975 52.3056897,32.3795573 52.1009286,32.4159717 C51.8961674,32.4523862 51.6974286,32.4705934 51.5047123,32.4705934 C51.1915481,32.4705934 50.9536639,32.4129372 50.7910594,32.2976248 C50.628455,32.1823124 50.5080072,32.0305855 50.4297162,31.8424442 C50.3514252,31.6543029 50.3062573,31.4418853 50.2942125,31.2051915 C50.2821677,30.9684976 50.2761453,30.7287692 50.2761453,30.4860062 L50.2761453,30.4860062 L50.2761453,26.5714535 L52.6068091,26.5714535 L52.6068091,25.1512902 L50.2761453,25.1512902 L50.2761453,22.7297297 L48.6501009,22.7297297 L48.6501009,25.1512902 L46.7711161,25.1512902 L46.7711161,26.5714535 L48.6501009,26.5714535 L48.6501009,31.0686373 C48.6501009,31.4206436 48.6651568,31.7696153 48.6952688,32.1155525 C48.7253807,32.4614898 48.8217389,32.7740471 48.9843433,33.0532245 C49.1469478,33.3324019 49.399888,33.5599921 49.7431641,33.7359953 C50.0864401,33.9119984 50.5712423,34 51.1975705,34 Z M55.9406109,23.2432432 C56.2655286,23.2432432 56.5453189,23.1247952 56.7799817,22.8878993 C57.0146445,22.6510033 57.1319759,22.3685504 57.1319759,22.0405405 C57.1319759,21.7125307 57.0146445,21.4300778 56.7799817,21.1931818 C56.5453189,20.9562858 56.2655286,20.8378378 55.9406109,20.8378378 C55.6156931,20.8378378 55.3359029,20.9562858 55.1012401,21.1931818 C54.8665773,21.4300778 54.7492459,21.7125307 54.7492459,22.0405405 C54.7492459,22.3685504 54.8665773,22.6510033 55.1012401,22.8878993 C55.3359029,23.1247952 55.6156931,23.2432432 55.9406109,23.2432432 Z M56.7571644,33.7837838 L56.7571644,25.1351351 L55.1508296,25.1351351 L55.1508296,33.7837838 L56.7571644,33.7837838 Z M62.1396118,34 C62.7922096,34 63.3662539,33.884511 63.8617447,33.6535331 C64.3572356,33.4225551 64.7862582,33.0274612 65.1488124,32.4682514 L65.1488124,32.4682514 L65.1850679,32.4682514 C65.1850679,32.9058938 65.2031956,33.3435363 65.239451,33.7811788 L65.239451,33.7811788 L66.6896682,33.7811788 C66.6654979,33.5502008 66.6473702,33.3070661 66.635285,33.0517747 C66.6231999,32.7964832 66.6171573,32.5168783 66.6171573,32.2129599 L66.6171573,32.2129599 L66.6171573,27.8000651 C66.6171573,27.4232063 66.5476677,27.0615435 66.4086886,26.7150765 C66.2697095,26.3686096 66.0551982,26.061652 65.7651547,25.7942038 C65.4751113,25.5267557 65.1034932,25.3140128 64.6503003,25.1559753 C64.1971074,24.9979377 63.6562973,24.9189189 63.0278699,24.9189189 C62.4236127,24.9189189 61.8193556,25.0252904 61.2150984,25.2380332 C60.6108413,25.4507761 60.079095,25.7698904 59.6198595,26.1953761 L59.6198595,26.1953761 L60.5987561,27.2165418 C60.7437778,27.1071312 60.8948421,26.9916422 61.051949,26.8700749 C61.2090558,26.7485075 61.3842904,26.6421361 61.5776527,26.5509606 C61.771015,26.4597851 61.9855263,26.3838055 62.2211866,26.3230218 C62.4568468,26.2622381 62.7317838,26.2318463 63.0459976,26.2318463 C63.3964667,26.2318463 63.6985953,26.2835124 63.9523833,26.3868447 C64.2061713,26.4901769 64.4176613,26.6299794 64.5868533,26.806252 C64.7560453,26.9825247 64.8829393,27.1800716 64.9675353,27.3988929 C65.0521313,27.6177141 65.0944293,27.8365353 65.0944293,28.0553566 L65.0944293,28.0553566 L65.0944293,28.4200586 L63.8980001,28.4200586 C63.2454024,28.4200586 62.6320814,28.4717247 62.0580371,28.575057 C61.4839928,28.6783892 60.9824594,28.8485835 60.5534368,29.0856399 C60.1244142,29.3226962 59.7860302,29.6296538 59.5382848,30.0065125 C59.2905394,30.3833713 59.1666667,30.8514056 59.1666667,31.4106154 C59.1666667,31.8361012 59.2452201,32.2099208 59.402327,32.5320742 C59.5594338,32.8542277 59.7739451,33.1247151 60.0458608,33.3435363 C60.3177765,33.5623575 60.6350115,33.7264735 60.9975658,33.8358841 C61.3601201,33.9452947 61.7408021,34 62.1396118,34 Z M62.643331,32.6756757 C62.0770095,32.6756757 61.6281696,32.5666023 61.2968113,32.3484556 C60.9654529,32.1303089 60.7997738,31.7727906 60.7997738,31.2759009 C60.7997738,30.9365616 60.905206,30.6578185 61.1160703,30.4396718 C61.3269347,30.2215251 61.5980461,30.0518554 61.9294044,29.9306628 C62.2607628,29.8094702 62.6282693,29.7276652 63.031924,29.6852477 C63.4355787,29.6428303 63.8301964,29.6216216 64.215777,29.6216216 L64.215777,29.6216216 L65.0833333,29.6216216 L65.0833333,30.1669884 C65.0833333,30.4578507 65.0411605,30.7517428 64.9568147,31.0486647 C64.8724689,31.3455867 64.7339009,31.6152402 64.5411106,31.8576255 C64.3483203,32.1000107 64.095283,32.2969487 63.7819988,32.4484395 C63.4687145,32.5999303 63.0891586,32.6756757 62.643331,32.6756757 Z M71,33.7837838 L71,20 L69.3936652,20 L69.3936652,33.7837838 L71,33.7837838 Z" id="essential"></path>
            <path d="M6.61365242,20 C7.53814146,20 8.41373926,19.8520488 9.24044582,19.5561464 C10.0671524,19.260244 10.7916318,18.7728753 11.413884,18.0940404 L11.413884,18.0940404 L9.707135,16.4230622 C9.29822638,16.8756188 8.85376049,17.2193878 8.37373733,17.4543691 C7.89371418,17.6893504 7.31590852,17.806841 6.64032037,17.806841 C6.01806813,17.806841 5.45804111,17.6980534 4.96023931,17.4804781 C4.46243752,17.2629028 4.03575027,16.9626489 3.68017755,16.5797164 C3.32460484,16.1967839 3.04903599,15.7485788 2.853471,15.2351011 C2.65790601,14.7216234 2.56012352,14.1776852 2.56012352,13.6032864 C2.56012352,13.0288876 2.64457204,12.4762464 2.81346907,11.9453627 C2.98236611,11.4144789 3.23126701,10.9445163 3.56017176,10.5354748 C3.88907652,10.1264332 4.29798514,9.80442177 4.78689762,9.56944045 C5.27581009,9.33445914 5.84917109,9.21696848 6.5069806,9.21696848 C7.18256875,9.21696848 7.76481907,9.33445914 8.25373154,9.56944045 C8.74264402,9.80442177 9.2093332,10.1481907 9.65379909,10.6007473 L9.65379909,10.6007473 L11.4672199,8.98198716 C10.8449677,8.32055827 10.111599,7.82883811 9.26711377,7.50682667 C8.42262858,7.18481524 7.53814146,7.02380952 6.61365242,7.02380952 C5.61804883,7.02380952 4.71578307,7.18481524 3.90685516,7.50682667 C3.09792724,7.82883811 2.40456046,8.27704321 1.8267548,8.85144199 C1.24894915,9.42584076 0.800038599,10.1133787 0.480023159,10.9140558 C0.16000772,11.7147328 0,12.593737 0,13.5510683 C0,14.5083996 0.16000772,15.3830523 0.480023159,16.1750263 C0.800038599,16.9670004 1.2533938,17.6458353 1.84008878,18.2115311 C2.42678375,18.7772269 3.12459519,19.2167289 3.93352311,19.5300374 C4.74245103,19.8433458 5.63582746,20 6.61365242,20 Z M15.8647303,19.6428571 L15.8647303,13.303099 C15.8647303,12.5929075 15.9538036,11.9779856 16.1319502,11.4583333 C16.3100968,10.938681 16.5595021,10.5099679 16.880166,10.1721939 C17.2008299,9.83441988 17.5749378,9.58758503 18.0024896,9.43168934 C18.4300415,9.27579365 18.8932227,9.1978458 19.3920332,9.1978458 C19.7661411,9.1978458 20.126888,9.25414147 20.4742739,9.3667328 C20.8216598,9.47932414 21.1289627,9.66120244 21.3961826,9.91236772 C21.6634025,10.163533 21.8771784,10.4926461 22.0375104,10.8997071 C22.1978423,11.3067681 22.2780083,11.7961073 22.2780083,12.3677249 L22.2780083,12.3677249 L22.2780083,19.6428571 L24.6829876,19.6428571 L24.6829876,11.7181595 C24.6829876,10.9040375 24.5582849,10.1981765 24.3088797,9.60057634 C24.0594744,9.00297619 23.7254495,8.51363694 23.306805,8.13255858 C22.8881604,7.75148022 22.3982573,7.47000189 21.8370954,7.28812358 C21.2759336,7.10624528 20.6925035,7.01530612 20.086805,7.01530612 C19.1069986,7.01530612 18.2429876,7.21883661 17.4947718,7.62589758 C16.746556,8.03295855 16.2210235,8.56560217 15.9181743,9.22382842 L15.9181743,9.22382842 L15.8647303,9.22382842 L15.8647303,0 L13.459751,0 L13.459751,19.6428571 L15.8647303,19.6428571 Z M32.0630445,20 C33.0225166,20 33.8664967,19.8349748 34.5949848,19.5049245 C35.3234728,19.1748741 35.9542369,18.6103143 36.4872769,17.811245 L36.4872769,17.811245 L36.5405809,17.811245 C36.5405809,18.4366036 36.5672329,19.0619621 36.6205369,19.6873207 L36.6205369,19.6873207 L38.7526971,19.6873207 C38.7171611,19.3572704 38.6905091,19.0098489 38.6727411,18.6450564 C38.6549731,18.2802639 38.6460891,17.8807293 38.6460891,17.4464525 L38.6460891,17.4464525 L38.6460891,11.1407535 C38.6460891,10.6022503 38.5439231,10.0854609 38.3395911,9.59038535 C38.135259,9.09530981 37.819877,8.65669025 37.393445,8.27452668 C36.9670129,7.8923631 36.4206469,7.58836935 35.7543468,7.36254542 C35.0880468,7.13672149 34.2929287,7.02380952 33.3689927,7.02380952 C32.4805926,7.02380952 31.5921925,7.1758064 30.7037924,7.47980015 C29.8153924,7.78379391 29.0336003,8.23978453 28.3584162,8.84777204 L28.3584162,8.84777204 L29.7976244,10.3069421 C30.0108404,10.1506024 30.2329404,9.98557723 30.4639244,9.81186651 C30.6949084,9.6381558 30.9525445,9.48615892 31.2368325,9.35587588 C31.5211205,9.22559285 31.8365025,9.11702365 32.1829786,9.03016829 C32.5294546,8.94331293 32.9336766,8.89988526 33.3956447,8.89988526 C33.9109167,8.89988526 34.3551167,8.97371231 34.7282448,9.12136642 C35.1013728,9.26902053 35.4123128,9.46878785 35.6610648,9.72066839 C35.9098169,9.97254893 36.0963809,10.2548288 36.2207569,10.5675081 C36.3451329,10.8801874 36.4073209,11.1928667 36.4073209,11.505546 L36.4073209,11.505546 L36.4073209,12.0266781 L34.6482888,12.0266781 C33.6888167,12.0266781 32.7870906,12.1005052 31.9431105,12.2481593 C31.0991305,12.3958134 30.3617584,12.6390084 29.7309944,12.9777443 C29.1002303,13.3164802 28.6027263,13.7550998 28.2384822,14.293603 C27.8742382,14.8321062 27.6921162,15.5008925 27.6921162,16.2999618 C27.6921162,16.9079493 27.8076082,17.4421097 28.0385922,17.9024431 C28.2695762,18.3627765 28.5849583,18.7492828 28.9847383,19.0619621 C29.3845183,19.3746414 29.8509284,19.6091509 30.3839684,19.7654905 C30.9170084,19.9218302 31.4767005,20 32.0630445,20 Z M32.8039288,18.0952381 C31.9706334,18.0952381 31.3102024,17.9393424 30.822636,17.627551 C30.3350695,17.3157596 30.0912863,16.8047682 30.0912863,16.0945767 C30.0912863,15.6095679 30.2464211,15.2111678 30.5566907,14.8993764 C30.8669602,14.587585 31.2658782,14.3450806 31.7534447,14.1718632 C32.2410111,13.9986458 32.7817667,13.881724 33.3757113,13.8210979 C33.9696559,13.7604718 34.5503032,13.7301587 35.1176532,13.7301587 L35.1176532,13.7301587 L36.3941909,13.7301587 L36.3941909,14.5096372 C36.3941909,14.925359 36.332137,15.3454113 36.2080291,15.769794 C36.0839213,16.1941767 35.8800299,16.5795855 35.5963549,16.9260204 C35.3126798,17.2724553 34.9403563,17.5539336 34.4793844,17.7704554 C34.0184125,17.9869772 33.4599273,18.0952381 32.8039288,18.0952381 Z M46.8479317,20 C47.0959066,20 47.4457284,19.9696344 47.8973971,19.9089032 C48.3490658,19.8481721 48.7166001,19.7397236 49,19.5835577 L49,19.5835577 L49,17.449291 C48.752025,17.5881051 48.4774814,17.6835398 48.1763689,17.735595 C47.8752565,17.7876503 47.5830003,17.813678 47.2996003,17.813678 C46.8390754,17.813678 46.4892536,17.7312571 46.2501349,17.5664154 C46.0110162,17.4015736 45.8338913,17.1846766 45.71876,16.9157243 C45.6036288,16.646772 45.5372069,16.3431161 45.5194944,16.0047568 C45.5017819,15.6663974 45.4929257,15.3237001 45.4929257,14.9766649 L45.4929257,14.9766649 L45.4929257,9.38072159 L48.9202938,9.38072159 L48.9202938,7.35056543 L45.4929257,7.35056543 L45.4929257,3.88888889 L43.1017387,3.88888889 L43.1017387,7.35056543 L40.3385892,7.35056543 L40.3385892,9.38072159 L43.1017387,9.38072159 L43.1017387,15.8095495 C43.1017387,16.3127506 43.1238793,16.8116137 43.1681605,17.3061389 C43.2124418,17.8006642 43.3541417,18.247472 43.5932604,18.6465626 C43.8323791,19.0456531 44.2043416,19.3709986 44.7091477,19.6225992 C45.2139539,19.8741997 45.9268819,20 46.8479317,20 Z" id="chat"></path>
        </g>
    </g>
</svg>